<?xml version="1.0" ?>
<!-- Uploaded to: SVG Repo, www.svgrepo.com, Generator: SVG Repo Mixer Tools -->
<svg width="800px" height="800px" viewBox="0 0 50 50" id="Message_And_Communication_Icons" version="1.1" xml:space="preserve" xmlns="http://www.w3.org/2000/svg" xmlns:xlink="http://www.w3.org/1999/xlink">
<g>
<g>
<g>
<polygon points="43.1,11.6 43.1,25.3 31.6,25.3 31.6,27.5 46.5,27.5 46.5,11.6    " style="fill:#4DE0F9;"/>
</g>
</g>
<g>
<g>
<polygon points="46.2,27.2 31.7,27.2 31.7,26 45,26 45,11.3 21.2,11.3 21.2,18.7 20,18.7 20,10.1      46.2,10.1    " style="fill:#0D5FC3;"/>
</g>
</g>
<g>
<g>
<polygon points="27.8,21.6 27.8,38.6 23.3,34.6 5.7,34.6 5.7,37.6 26.3,37.6 30.8,41.6 30.8,21.6    " style="fill:#4DE0F9;"/>
</g>
</g>
<g>
<g>
<path d="M30.4,41.9l-5.3-4.8H4.1V20h26.2V41.9z M5.3,36h20.2l3.6,3.3v-18H5.3V36z" style="fill:#0D5FC3;"/>
</g>
</g>
<g>
<g>
<g>
<rect height="1.2" style="fill:#0D5FC3;" width="5.9" x="32.9" y="14.3"/>
</g>
</g>
<g>
<g>
<rect height="1.2" style="fill:#0D5FC3;" width="3.3" x="27.4" y="14.3"/>
</g>
</g>
<g>
<g>
<rect height="1.2" style="fill:#0D5FC3;" width="2.4" x="36.4" y="17.9"/>
</g>
</g>
<g>
<g>
<rect height="1.2" style="fill:#0D5FC3;" width="6.6" x="27.4" y="17.9"/>
</g>
</g>
<g>
<g>
<rect height="1.2" style="fill:#0D5FC3;" width="7.3" x="31.5" y="21.5"/>
</g>
</g>
</g>
<g>
<g>
<g>
<rect height="1.2" style="fill:#0D5FC3;" width="11.4" x="11.4" y="24.6"/>
</g>
</g>
<g>
<g>
<rect height="1.2" style="fill:#0D5FC3;" width="3.6" x="19.3" y="28.2"/>
</g>
</g>
<g>
<g>
<rect height="1.2" style="fill:#0D5FC3;" width="5.7" x="11.4" y="28.2"/>
</g>
</g>
<g>
<g>
<rect height="1.2" style="fill:#0D5FC3;" width="11.4" x="11.4" y="31.9"/>
</g>
</g>
</g>
</g>
</svg>